HIERARCHY
ROOT Hips
{
	OFFSET 0.00000 0.00000 0.00000
	CHANNELS 6 Xposition Yposition Zposition Zrotation Yrotation Xrotation 
	JOINT RightUpLegDummy
	{
		OFFSET 0 0 0
		CHANNELS 3 Zrotation Yrotation Xrotation
		JOINT RightUpLeg
		{
			OFFSET -3.52197 -3.41223 0.04002
			CHANNELS 3 Zrotation Yrotation Xrotation
			JOINT RightLeg
			{
				OFFSET 0.00006 -17.42390 1.60435
				CHANNELS 3 Zrotation Yrotation Xrotation
				JOINT RightFoot
				{
					OFFSET 0.06154 -16.50078 -1.63900
					CHANNELS 3 Zrotation Yrotation Xrotation
					JOINT RightToes
					{
						OFFSET 0.00298 -1.73825 3.34613
						CHANNELS 3 Zrotation Yrotation Xrotation
						End Site
						{
							OFFSET 0.00480 -0.05416 3.85043
						}
					}
				}
			}
		}
	}
	JOINT SpineDummy
	{
		OFFSET 0 0 0
		CHANNELS 3 Zrotation Yrotation Xrotation
		JOINT Spine
		{
			OFFSET 0.00000 4.68130 0.00000
			CHANNELS 3 Zrotation Yrotation Xrotation
			JOINT Spine1
			{
				OFFSET -0.00000 10.10138 0.05002
				CHANNELS 3 Zrotation Yrotation Xrotation
				JOINT HEadDummy
				{
					OFFSET 0 0 0
					CHANNELS 3 Zrotation Yrotation Xrotation
					JOINT Head
					{
						OFFSET -0.00000 3.43865 0.00438
						CHANNELS 3 Zrotation Yrotation Xrotation
						End Site
						{
							OFFSET -0.11417 5.02924 0.98962
						}
					}
				}
				JOINT LeftShoulder1Dummy
				{
					OFFSET 0 0 0
					CHANNELS 3 Zrotation Yrotation Xrotation
					JOINT LeftShoulder1
					{
						OFFSET 3.53937 -0.14262 -0.08662
						CHANNELS 3 Zrotation Yrotation Xrotation
						JOINT LeftArm
						{
							OFFSET 4.04833 -0.00133 0.12681
							CHANNELS 3 Zrotation Yrotation Xrotation
							JOINT LeftForeArm
							{
								OFFSET 10.33880 -0.01036 -0.55515
								CHANNELS 3 Zrotation Yrotation Xrotation
								JOINT LeftHand
								{
									OFFSET 8.69677 0.07543 0.40060
									CHANNELS 3 Zrotation Yrotation Xrotation
									End Site
									{
										OFFSET 5.28377 -0.21905 0.59205
									}
								}
							}
						}
					}
				}
				JOINT RightShoulderDummy
				{
					OFFSET 0 0 0
					CHANNELS 3 Zrotation Yrotation Xrotation
					JOINT RightShoulder
					{
						OFFSET -3.53937 -0.14262 -0.08660
						CHANNELS 3 Zrotation Yrotation Xrotation
						JOINT RightArm
						{
							OFFSET -4.04833 -0.00133 0.12683
							CHANNELS 3 Zrotation Yrotation Xrotation
							JOINT RightForeArm
							{
								OFFSET -10.37987 -0.01039 -0.55511
								CHANNELS 3 Zrotation Yrotation Xrotation
								JOINT RightHand
								{
									OFFSET -8.67398 0.07538 0.40058
									CHANNELS 3 Zrotation Yrotation Xrotation
									End Site
									{
										OFFSET -5.24810 -0.21916 0.59204
									}
								}
							}
						}
					}
				}
			}
		}
	}
	JOINT LeftUpLegDummy
	{
		OFFSET 0 0 0
		CHANNELS 3 Zrotation Yrotation Xrotation
		JOINT LeftUpLeg
		{
			OFFSET 3.52197 -3.41223 0.04002
			CHANNELS 3 Zrotation Yrotation Xrotation
			JOINT LeftLeg
			{
				OFFSET -0.00012 -17.42399 1.60337
				CHANNELS 3 Zrotation Yrotation Xrotation
				JOINT LeftFoot
				{
					OFFSET -0.09972 -16.50070 -1.63802
					CHANNELS 3 Zrotation Yrotation Xrotation
					JOINT LeftToes
					{
						OFFSET -0.01575 -1.73823 3.34611
						CHANNELS 3 Zrotation Yrotation Xrotation
						End Site
						{
							OFFSET 0.03150 -0.01868 3.85031
						}
					}
				}
			}
		}
	}
}
MOTION
Frames: 6
Frame Time: 0.033333
3.4856 31.2747 12.0435 103.3910 47.2365 144.5760 0.0000 0.0000 0.0000 -28.0475 -41.0059 -90.7587 21.1223 7.6379 65.7912 5.8553 -0.4297 -3.1854 -0.0000 -0.0000 0.0000 0.0000 0.0000 0.0000 -38.8416 -11.0807 18.5545 -1.4620 -21.9134 49.7489 0.0000 0.0000 0.0000 14.6242 18.3622 11.5264 0.0000 0.0000 0.0000 -13.1259 -10.0974 2.7380 -46.5044 -25.9863 12.1072 -131.2888 -87.2340 89.3316 13.4554 9.2090 0.3873 0.0000 0.0000 0.0000 -3.9517 12.2182 0.7834 65.1971 35.0340 8.2438 1.1982 51.6416 -4.6721 -9.8558 1.7129 -0.5882 0.0000 0.0000 0.0000 -26.0758 -38.8305 -35.3203 7.5926 4.7101 50.9498 -17.2351 -3.0400 -32.4700 0.0000 0.0000 0.0000
3.5292 31.4837 12.0341 102.5430 43.3190 143.9780 0.0000 0.0000 0.0000 -30.9797 -44.6496 -89.1217 22.3057 8.3780 65.2011 5.4604 -0.4270 -2.6088 -0.0000 -0.0000 0.0000 0.0000 0.0000 0.0000 -41.3225 -11.3287 19.1210 -1.8518 -22.8718 52.1069 0.0000 0.0000 0.0000 15.0069 18.0891 10.4856 0.0000 0.0000 0.0000 -11.4484 -10.3090 2.5711 -48.6084 -26.9238 12.4387 -127.6922 -87.4397 87.5492 12.8132 9.3916 0.3838 0.0000 0.0000 0.0000 -3.2675 11.6201 0.8440 64.7967 35.4060 8.4155 1.2004 51.3741 -4.7937 -9.7638 1.7854 -0.5881 0.0000 0.0000 0.0000 -29.8466 -41.4128 -32.3471 7.5601 5.3447 47.5834 -17.1996 -2.7702 -30.7121 0.0000 0.0000 0.0000
3.5608 31.7463 12.0417 102.3030 40.0677 143.7750 0.0000 0.0000 0.0000 -33.5963 -47.6166 -87.0407 22.9822 9.0865 64.3069 5.0165 -0.4166 -2.0272 -0.0000 -0.0000 0.0000 0.0000 0.0000 0.0000 -42.9872 -11.4951 19.9266 -2.1730 -23.6735 53.8679 0.0000 0.0000 0.0000 15.2475 17.6620 9.4863 0.0000 0.0000 0.0000 -9.5736 -10.5152 2.3733 -50.6052 -27.9021 12.3868 -123.9662 -87.6039 85.1227 12.6263 9.2418 0.3615 0.0000 0.0000 0.0000 -2.6257 10.9721 0.8890 64.4726 35.7605 8.6486 1.2189 51.2393 -5.0832 -9.7838 1.8074 -0.5911 0.0000 0.0000 0.0000 -32.9341 -43.4252 -29.4163 7.3787 5.8877 44.2994 -17.1766 -2.4780 -28.7755 0.0000 0.0000 0.0000
3.5933 32.3021 12.1325 103.9570 41.3151 145.6640 0.0000 0.0000 0.0000 -31.5144 -46.7993 -85.9797 21.4202 9.5417 61.8481 4.7088 -0.4129 -1.4579 -0.0000 -0.0000 0.0000 0.0000 0.0000 0.0000 -40.4323 -11.6031 19.8182 -2.0527 -23.2564 53.5798 0.0000 0.0000 0.0000 15.4044 17.1875 8.5719 0.0000 0.0000 0.0000 -7.5338 -10.7425 2.1519 -52.0664 -28.9659 11.9457 -116.7377 -87.7989 78.5976 12.9115 8.5249 0.2953 0.0000 0.0000 0.0000 -1.9558 10.3470 0.9318 64.0437 36.0747 8.8528 1.2659 51.3832 -5.6467 -9.7328 1.7159 -0.5809 0.0000 0.0000 0.0000 -30.1095 -43.2899 -29.7448 7.1397 6.3087 41.4296 -17.2424 -2.2022 -26.8476 0.0000 0.0000 0.0000
3.6357 32.9131 12.2725 106.7360 43.5071 148.5690 0.0000 0.0000 0.0000 -28.6273 -44.9752 -84.6462 19.0189 9.6144 58.9676 4.4872 -0.4067 -1.0952 -0.0000 -0.0000 0.0000 0.0000 0.0000 0.0000 -36.6933 -11.7068 19.5846 -1.6750 -22.6950 52.7989 0.0000 0.0000 0.0000 15.4645 16.6962 7.6644 0.0000 0.0000 0.0000 -5.3394 -11.0094 1.9091 -52.7960 -30.1003 11.2299 -108.4444 -87.9457 70.8462 13.5607 7.3305 0.1818 0.0000 0.0000 0.0000 -1.2081 9.8233 0.9838 63.3735 36.2788 8.8438 1.3141 51.7954 -6.1195 -9.7115 1.7015 -0.5785 0.0000 0.0000 0.0000 -25.6288 -42.6076 -30.8303 6.6685 6.4415 38.8110 -17.3142 -1.9388 -25.0064 0.0000 0.0000 0.0000
3.6917 33.4735 12.4366 110.0500 45.3377 151.8530 0.0000 0.0000 0.0000 -26.1569 -43.2543 -82.9212 16.6969 9.4629 56.1583 4.4095 -0.4062 -0.9116 -0.0000 -0.0000 0.0000 0.0000 0.0000 0.0000 -32.9932 -11.7926 19.4289 -1.1808 -22.2568 51.9849 0.0000 0.0000 0.0000 15.5145 16.1561 6.7112 0.0000 0.0000 0.0000 -2.9721 -11.2687 1.6339 -53.0921 -31.3169 10.2353 -100.9532 -88.0328 63.9116 13.9269 6.5334 0.0978 0.0000 0.0000 0.0000 -0.3412 9.3678 1.0479 62.4621 36.3679 8.6493 1.3375 52.2535 -6.2476 -9.8419 1.8899 -0.6011 0.0000 0.0000 0.0000 -21.3228 -41.8144 -31.7091 5.9246 6.1731 36.4587 -17.3868 -1.6942 -23.3007 0.0000 0.0000 0.0000
